<svg xmlns="http://www.w3.org/2000/svg" viewBox="0 0 108.6 141"><defs><style>.b83277f8-a639-46e8-8986-9071474d4bd1{fill:#12283f;}.ace24515-d422-48f1-a014-d9b5ecfa361a{fill:#977124;}</style></defs><g id="fb72b577-a789-4384-8d27-086649db41ab" data-name="Layer 2"><g id="ec456803-9cf6-418f-a5c9-3c568c230d73" data-name="Page 3"><path class="b83277f8-a639-46e8-8986-9071474d4bd1" d="M0,121.7a6.1,6.1,0,0,1,6.2-6.2,5.9,5.9,0,0,1,4.6,2l-1.5,1.8a4.1,4.1,0,0,0-3.1-1.4,3.8,3.8,0,0,0,0,7.5A4,4,0,0,0,9.3,124l1.7,1.8a6,6,0,0,1-4.9,2A6,6,0,0,1,0,121.7"></path><polygon class="b83277f8-a639-46e8-8986-9071474d4bd1" points="15.1 117.2 17.7 115.7 17.7 127.6 15.1 127.6 15.1 117.2"></polygon><polygon class="b83277f8-a639-46e8-8986-9071474d4bd1" points="25.7 118.1 22 118.1 22 115.7 31.9 115.7 31.9 118.1 28.3 118.1 28.3 126.7 25.7 127.6 25.7 118.1"></polygon><polygon class="b83277f8-a639-46e8-8986-9071474d4bd1" points="40.1 122.9 35.6 115.7 38.6 115.7 41.5 120.5 44.3 115.7 47.3 115.7 42.7 122.9 42.7 126.7 40.1 127.6 40.1 122.9"></polygon><polygon class="b83277f8-a639-46e8-8986-9071474d4bd1" points="55.9 115.7 64.9 115.7 64.9 118 58.5 118 58.5 120.5 64.1 120.5 64.1 122.8 58.5 122.8 58.5 125.3 65 125.3 64 127.6 55.9 127.6 55.9 115.7"></polygon><path class="b83277f8-a639-46e8-8986-9071474d4bd1" d="M69.9,115.7h4.6c3.8,0,6.4,2.6,6.4,6s-2.6,5.9-6.4,5.9H69.9Zm4.6,9.6a3.6,3.6,0,0,0,0-7.2h-2v7.2Z"></path><path class="b83277f8-a639-46e8-8986-9071474d4bd1" d="M84.1,121.7a6.1,6.1,0,0,1,6.2-6.2,6.7,6.7,0,0,1,4.7,1.6l-1.6,2a4.8,4.8,0,0,0-3.1-1.2,3.7,3.7,0,0,0-3.5,3.8,3.5,3.5,0,0,0,3.6,3.7,3.9,3.9,0,0,0,2.5-.7V123H90.3v-2.2h5.1v5.1a7.3,7.3,0,0,1-5,1.9,6,6,0,0,1-6.3-6.1"></path><polygon class="b83277f8-a639-46e8-8986-9071474d4bd1" points="99.5 115.7 108.5 115.7 108.5 118 102.1 118 102.1 120.5 107.7 120.5 107.7 122.8 102.1 122.8 102.1 125.3 108.6 125.3 107.6 127.6 99.5 127.6 99.5 115.7"></polygon><path class="b83277f8-a639-46e8-8986-9071474d4bd1" d="M0,134.7H2.4a3.1,3.1,0,0,1,3.3,3.1,3,3,0,0,1-3.3,3.1H0Zm2.4,5a1.8,1.8,0,0,0,1.9-1.9A1.8,1.8,0,0,0,2.4,136h-1v3.7Z"></path><polygon class="b83277f8-a639-46e8-8986-9071474d4bd1" points="10.3 134.7 14.9 134.7 14.9 135.9 11.6 135.9 11.6 137.2 14.5 137.2 14.5 138.4 11.6 138.4 11.6 139.7 15 139.7 15 140.9 10.3 140.9 10.3 134.7"></polygon><polygon class="b83277f8-a639-46e8-8986-9071474d4bd1" points="18.8 134.7 20.3 134.7 22 139.1 23.6 134.7 25 134.7 22.5 141 21.3 141 18.8 134.7"></polygon><polygon class="b83277f8-a639-46e8-8986-9071474d4bd1" points="29 134.7 33.7 134.7 33.7 135.9 30.4 135.9 30.4 137.2 33.3 137.2 33.3 138.4 30.4 138.4 30.4 139.7 33.7 139.7 33.7 140.9 29 140.9 29 134.7"></polygon><polygon class="b83277f8-a639-46e8-8986-9071474d4bd1" points="38.6 134.7 39.9 134.7 39.9 139.7 43 139.7 43 140.9 38.6 140.9 38.6 134.7"></polygon><path class="b83277f8-a639-46e8-8986-9071474d4bd1" d="M46.6,137.8a3.2,3.2,0,0,1,3.3-3.2,3.2,3.2,0,1,1-3.3,3.2m5.2,0a1.9,1.9,0,0,0-1.9-1.9,1.8,1.8,0,0,0-1.9,1.9,1.9,1.9,0,1,0,3.8,0"></path><path class="b83277f8-a639-46e8-8986-9071474d4bd1" d="M57.6,134.7h2.5a2.2,2.2,0,0,1,2.4,2.2,2.3,2.3,0,0,1-2.5,2.2H58.9v1.8H57.6Zm2.4,3.1c.7,0,1.1-.4,1.1-.9s-.4-.9-1.1-.9H58.9v1.8Z"></path><polygon class="b83277f8-a639-46e8-8986-9071474d4bd1" points="66.7 134.7 68.1 134.7 69.7 137.3 71.4 134.7 72.8 134.7 72.8 140.9 71.5 140.9 71.5 136.9 69.7 139.5 69.7 139.5 68 136.9 68 140.9 66.7 140.9 66.7 134.7"></polygon><polygon class="b83277f8-a639-46e8-8986-9071474d4bd1" points="77.5 134.7 82.2 134.7 82.2 135.9 78.9 135.9 78.9 137.2 81.8 137.2 81.8 138.4 78.9 138.4 78.9 139.7 82.2 139.7 82.2 140.9 77.5 140.9 77.5 134.7"></polygon><polygon class="b83277f8-a639-46e8-8986-9071474d4bd1" points="86.4 134.7 87.7 134.7 90.6 138.5 90.6 134.7 91.9 134.7 91.9 140.9 90.8 140.9 87.8 137 87.8 140.9 86.4 140.9 86.4 134.7"></polygon><polygon class="b83277f8-a639-46e8-8986-9071474d4bd1" points="97.5 136 95.6 136 95.6 134.7 100.8 134.7 100.8 136 98.9 136 98.9 140.9 97.5 140.9 97.5 136"></polygon><path class="b83277f8-a639-46e8-8986-9071474d4bd1" d="M103.7,140l.8-1a2.5,2.5,0,0,0,1.8.8q.9,0,.9-.6c0-.3-.2-.5-1.2-.8s-2.1-.7-2.1-1.9a2,2,0,0,1,2.2-1.9,3.6,3.6,0,0,1,2.3.8l-.7,1a4,4,0,0,0-1.6-.6c-.6,0-.8.3-.8.6s.2.5,1.3.8,2,.8,2,1.9-1,1.9-2.3,1.9a3.7,3.7,0,0,1-2.6-1"></path><path class="ace24515-d422-48f1-a014-d9b5ecfa361a" d="M82,12.9a2.5,2.5,0,0,1-1.8,2.5L54.6,23.6h-.2L43.3,27.4l11.3,3.8.6.2L65.5,28l17-5.5a9.6,9.6,0,0,0,5-3.6,9.8,9.8,0,0,0,2.1-5.8V4.4L82.3,1.5,78.2,0,66,3.8,82,9.6Zm7.7,23.9V28.9l-8.2,2.7L56.1,39.4a8,8,0,0,1-1.5.3,6.7,6.7,0,0,1-2.4-.4L27.3,30V26.6a2.5,2.5,0,0,1,1.6-2.5l25.7-8.3h.1l11.6-4L54.6,7.7h0l-11,3.8L26.6,17a10.4,10.4,0,0,0-5,3.5,11,11,0,0,0-2,5.9v8.9L26.8,38l15.8,6.1L28.1,48.6l-8.5,2.8v7.8l8.2-2.6,25.4-7.9,1.4-.2a6.9,6.9,0,0,1,2.5.4L82,58.1v3.5a2.6,2.6,0,0,1-1.7,2.5L54.6,72.4h0L43,76.3l11.6,4.2h.1l11-3.8,16.9-5.5a9.7,9.7,0,0,0,5-3.6,10,10,0,0,0,2.1-5.8V52.9l-7.3-2.7L66.6,44.1l14.6-4.5ZM27.2,75.2a2.7,2.7,0,0,1,1.9-2.4l25.5-8.3h.2L66,60.8,54.6,57l-.5-.2L43.8,60.2l-17,5.4a10.3,10.3,0,0,0-5,3.6A9.6,9.6,0,0,0,19.7,75v8.8L27,86.6l4.1,1.6,12.1-3.8L27.3,78.5Z"></path></g></g></svg>